<?xml version="1.0" encoding="UTF-8"?>
<svg id="Layer_1" xmlns="http://www.w3.org/2000/svg" version="1.1" viewBox="0 0 2592 144">
  <!-- Generator: Adobe Illustrator 29.8.1, SVG Export Plug-In . SVG Version: 2.1.1 Build 2)  -->
  <defs>
    <style>
      .st0 {
        fill: none;
        stroke: #000;
        stroke-miterlimit: 10;
        stroke-width: 10px;
      }
    </style>
  </defs>
  <g id="left-jamb">
    <path class="st0" d="M430.2,81.3l-14.6-18.5M179.1,143.5l-4.2-9.9M119.2,10.4l-5.1-9.9M280.3,138.1l1.7-3.4M297.4,101l1.7-4.5M303.4,86.8l1.7-4.5M283.7,61.7l-1.7-3.4M26.7,73.7l1.7-3.4M23.2,84.5L0,55.1M302.6,64.9l-9.4-20.8M276.8,1.6V.6M305.1,82.3h-13.7M276.8,132.5v-1.1M276.8,120.5v-28.3M276.8,138.1h0M277.7,5.9h-.8M276.8,61.7V19M276.8,13.6v-2.2M258.8,15.8v112.4M256.7,131.5c1.1,0,2.1-1.2,2.1-2.6M257.1,130.4h-13.7M243.8,130.4c-.7,0-1.2.8-1.2,1.7M242.6,132.5h0M241.3,133.6c.7,0,1.3-.6,1.3-1.5M241.8,133.6H36.1M33.6,131.6c.2,1.2,1.1,2,2.1,2M29.1,102.8c1,9.7,2.5,19.3,4.4,28.6M32.6,93.1c-2.4,2.2-3.7,6-3.3,9.7M32.7,93.6c2.1-2,3.4-5.1,3.4-8.5M36.1,84.5v-25.1M36.1,58.9c0-3.4-1.3-6.5-3.4-8.5M29.3,41.2c-.5,3.7.8,7.5,3.3,9.7M33.6,12.6c-1.9,9.4-3.5,18.9-4.5,28.5M35.6,10.4c-1,0-1.8.8-2.1,2M36.1,10.4h205.7M242.6,11.9c0-.9-.6-1.5-1.3-1.5M242.6,11.5h0M242.6,11.9c0,.9.5,1.7,1.2,1.7M243.4,13.6h13.7M258.8,15.2c0-1.4-1-2.6-2.1-2.6M276,.6H28.4M28.8.6c-.2,0-.4.2-.5.3M27.1.9c-4.5,19.1-7.1,38.8-8,58.8M20.6,59.8c0,1.1.4,2,1.1,2.5.6.5,1.5.6,2.2.2.6-.6,1.1-1.5,1.1-2.5M25,59.4v-1.1M29.2,58.9c0-1.5-1-2.8-2.2-2.8s-2.1,1.2-2.1,2.8M30,58.3v27.4M25,85.1c0,1.5,1,2.8,2.1,2.8s2.2-1.2,2.2-2.8M25,85.7v-1.2M25,84c0-1.1-.5-1.8-1.1-2.5-.7-.5-1.6-.5-2.2.2-.7.5-1.1,1.4-1.1,2.5M20,84.2c.8,20,3.5,39.6,8,58.7M28.4,143.2c.1.2.2.3.5.3M28.4,143.5h247.6M276.5,143.5c.2,0,.4-.2.4-.5M276.8,142.4v-9.9M276.8,132.1c0-.6-.2-1.2-.6-1.4-.4-.3-.8-.3-1.3,0M275.1,131.5l-5.1,3.2M266.5,133.2c0,.9.5,1.8,1.1,2.3.7.5,1.5.5,2.2,0M266.5,132.5v-58.8l-.8-2.3.8-1.1V11.5M269.8,8.6c-.7-.5-1.4-.5-2.2,0-.6.5-1.1,1.4-1.1,2.3M270,8.1l5.1,4.5M274.9,13.3c.5.3,1,.3,1.3,0,.4-.2.6-.8.6-1.4M276.8,11.5V1.6M276.8,1c0-.3-.1-.5-.4-.5M308.5,138.1v-55.7h-3.4M304.7,82.3c-.5,0-1,.3-1.2.9-.2.5-.1,1.2.1,1.7M291.8,85.4c-2.1,3.9-1.6,9.1,1.2,12.2,2.8,3.1,6.9,3.1,9.7,0,2.7-3.1,3.3-8.3,1.2-12.2M292.1,84.9c.2-.5.2-1.2.1-1.7-.2-.6-.7-.9-1.2-.9M291.4,82.3h-2.7M288.4,83.4c-.2,0-.5.3-.5.6M287.6,84.5c.2,0,.4-.2.4-.5M279.4,87.3c0,.9.6,1.7,1.3,1.7M280.7,89c.1,0,.2-.2.4-.3M282.4,87.9c-.4,0-.7.2-1,.6M287.9,89.6c0-.5-.1-.9-.4-1.2-.2-.3-.5-.5-.8-.5M287.9,89.9c-.1,4.8,1.8,9.4,5.2,11.7,3.4,2.3,7.5,2,10.6-.9M306,101.4c0-.6-.2-1.1-.7-1.4-.4-.3-1-.3-1.3.2M306,102v30.5M304.7,134.7c.6,0,1.2-.6,1.2-1.5M279.5,133.5c.1.8.6,1.2,1.2,1.2M280.3,133.6l-1.8-7.5M279.4,126.2c-.1-.8-.7-1.4-1.3-1.2-.7,0-1.2.8-1.2,1.5M277.3,7c-.1,0-.4.2-.4.3-.1.2-.1.3,0,.5M276.8,8.1l.8,1.1v3.4M275.4,13c.4.5,1,.8,1.5.5.5-.2.8-.8.8-1.5M275.1,13.6l-.8-2.2M274.2,11.6c-.1-.2-.4-.3-.6-.2M273.4,11.5l-5.2,5.4M268,16.1c-.5.5-.7,1.2-.5,1.8.1.6.6,1.1,1.2,1.1M268.2,19h7.7M276.5,19c3,0,5.4-3.1,5.6-6.9M283.2,10.4c-1.1,0-2.1,1.1-2.1,2.6M306,11.9c0-.9-.6-1.5-1.2-1.5M306,11.5v31.6M303.9,44.9c.4.5,1,.5,1.3.2.5-.3.7-.8.7-1.4M303.8,44.4c-3.3-2.9-7.5-3.2-11-.8-3.4,2.6-5.3,7.7-4.7,12.6M286.7,58.3c.4,0,.7-.2,1-.5.2-.5.4-.9.2-1.4M280.7,58.3c-2.2,0-3.9,2.3-3.9,4.9M276.8,62.8v27.3M276,90.5c0,1.7.6,3.2,1.4,4.5,1,1.1,2.3,1.7,3.5,1.5M282.9,97.1c0-.5-.1-.9-.5-1.2-.2-.3-.6-.5-.8-.5M282,96.5v21.9M281.5,120.5c.7,0,1.3-.6,1.3-1.5M281.2,119.4h-2.7M279,120.5c-2.7,0-4.7,2.8-4.7,6M274.3,126.1v3.2l-6,4.3M268.1,133.9c-.7.5-.8,1.4-.5,2.2.4.8,1.1,1.1,1.7.6M270,137l6.8-5.5v-5.4M281.2,126.5c0-1.4-1-2.6-2.2-2.6s-2.2,1.2-2.2,2.6M281.2,126.1v7.5M280.3,133.2c0,.8.4,1.4.8,1.5.6.2,1.2-.2,1.5-.8M282.9,89v1.1M279.4,90.5c0,.9.6,1.7,1.3,1.7s1.3-.8,1.3-1.7M279.4,90v-27.3M280.7,61.7c-.7,0-1.3.6-1.3,1.5M291,61.7c.5,0,1-.5,1.2-.9.1-.5.1-1.2-.1-1.7M303.9,59.7c2.1-3.9,1.5-8.9-1.2-12.2-2.8-3.1-6.9-3.1-9.7,0-2.8,3.1-3.3,8.3-1.2,12.2M303.7,59.1c-.2.5-.4,1.2-.1,1.7.2.5.7.9,1.2.9M26.7,86.8h1.7v-29.6h-1.7v29.6M-.5,46.3c-1.5,17.1-1.5,34.3,0,51.3M0,97.7l26.6-15.4v-20.6L0,46.3M247.7,54l.8-1.1M250.3,54v-1.1h-1.8M250.3,58.3h-1.8l-.8,1.1M247.7,59.4h-.8M248.5,59.4v-1.1M250.3,54l-1,2.2-.8,1.1v1.1M246.8,56.1v-1.1l.8-1.1M247.7,47.5l.8-1.2M250.3,47.5v-1.2h-1.8M250.3,48.6h-1.8l-.8,2.2M247.7,50.8l-.8,1.1M250.3,47.5l-1,1.1M246.8,49.7v-1.1l.8-1.1M250.3,45.2h-1.8l-.8,2.3M247.7,95.4l.8,2.3h1.8M250.3,97.7v1.1h-1.8l-.8-2.3M247.7,96.5l-.8-1.1v-1.1,1.1h.8M247.7,90l.8,1.1h1.8M250.3,93.3v2.2h-1.8l-.8-2.2M247.7,93.3l-.8-1.1v-1.1M248.5,91.1l.8,1.1,1,1.1M246.8,89l.8,1.1M247.7,78l.8,1.1h1.8M250.3,84.5v1.2h-1.8l-.8-1.2M247.7,84.5l-.8-1.1v-1.1M248.5,81.3v1.1l.8,1.1,1,1.1M248.5,81.3v-1.1M248.5,79.1v1.1M246.8,79.1v-1.1h.8M246.8,95.4v-46.8M248.5,79.1v-7.7M248.5,91.1v-5.4M248.5,97.7v-2.3M248.5,46.3v-1.1M248.5,52.9v-4.3M250.3,79.1v-7.7M250.3,91.1v-5.4M250.3,97.7v-2.3M250.3,46.3v-1.1M250.3,52.9v-4.3M250.3,93.3v-2.2M250.3,84.5v-5.4M250.3,71.4v-5.4M250.3,58.3v-4.3M250.3,48.6v-1.1M225.4,95.4v-46.8M248.5,64.9v-6.6M250.3,64.9v-6.6M246.8,94.3l.8,2.2M246.8,49.7l.8-2.2M225.4,95.4l1.7,3.4M225.4,48.6l1.7-3.4M246.8,95.4l-1.7,3.4M246.8,48.6l-1.7-3.4M248.5,71.4h-.8M247.7,71.4h-.8M250.3,71.4h-1.8M248.5,69.2v1.1l.8,1.1h1M247.7,66l.8-1.1M250.3,66v-1.1h-1.8M248.5,69.2v-1.1M250.3,66l-1,1.1h-.8v1.1M246.8,67.1v-1.1h.8M227.1,98.8l-1.7-3.4v-3.2M227.1,98.8h18M245.1,85.7l1.7,6.5-.8,3.2-.8,3.4M227.1,85.7h18M225.4,92.2v-3.2l1.7-3.2M227.1,58.3l-1.7-3.2v-3.2M227.1,58.3h18M245.1,45.2l.8,3.4.8,3.2-1.7,6.5M227.1,45.2h18M225.4,51.8v-3.2l1.7-3.4M227.1,85.7l-1.7-7.7v-6.6M245.1,58.3l.8,7.7.8,5.4-.8,6.6-.8,7.7M225.4,71.4v-5.4l1.7-7.7M289.8,64.9h16.2v-20.8h-16.2v20.8"/>
  </g>
  <g id="grow">
    <path class="st0" d="M276.8.6h178.2M450.8.6h2003.3M276.8,142.4v1.1h2177.3v-1.1M2421.6,82.3H308.5M288.8,82.3h-9.4M2421.6,138.1H308.5M2421.6,61.7H308.5M2421.6,5.9H306.8M2437.9,81.3v-18.5H293.1v18.5h2144.8M287.1,84.5h-7.7v3.4M282.9,87.9h4.2M305.1,134.7h-23.9M276.8,126.1v12h31.7M305.1,61.7h3.4V5.9h-30.8M282.9,10.4h22.2M287.1,58.3h-6.8M282.9,133.6l2.5-5.4v-39.3M285.4,88.3c0-.9-.6-1.5-1.3-1.5s-1.2.6-1.2,1.5M280.3,61.7h11.1"/>
  </g>
  <g id="mullions">
    <path class="st0" d="M793.6,81.3l-13.8-18.5M1157.7,81.3l-14.6-18.5M1520.9,81.3l-14.5-18.5M1884.3,81.3l-14.5-18.5M2247.6,81.3l-13.7-18.5"/>
  </g>
  <g id="right-jamb">
    <path class="st0" d="M2590.4,54l-6.9-7.7M2564.6,22.4l-6.8-9.9M2555.2,9.2l-7.6-8.6M2454.1,80.2l-3.4-2.2M2426.7,60.6l-5.1-4.5M2421.6,131.5l2.5-4.3M2462.7,137l-7.7-5.5M2455.2,130.7c-.4-.3-.8-.3-1.3,0-.4.2-.6.8-.6,1.4M2454.1,132.5v9.9M2453.3,141.9c0,.8.6,1.5,1.3,1.5M2455,143.5h134.6M2589,143.5c.7,0,1.3-.8,1.3-1.5M2590.4,142.4V1.6M2590.4,1c0-.9-.6-1.5-1.3-1.5M2589.5.6h-134.6M2454.6-.5c-.7,0-1.3.6-1.3,1.5M2454.1,1.6v9.9M2453.3,11.9c0,.6.2,1.2.6,1.4.5.3,1,.3,1.3,0M2455,12.6l7.7-5.5M2464.4,8.7c0-.6-.2-1.1-.6-1.4-.4-.3-.8-.3-1.3,0M2463.5,8.1v127.8M2462.5,136.7c.5.3,1,.3,1.3,0,.4-.3.6-.8.6-1.4M2473.5,9.2c-1.2,0-2.2,1.2-2.2,2.8M2473.8,9.2h81.4M2557.8,11.9c0-1.5-1-2.8-2.2-2.8M2557.8,12.6v118.9M2555.7,134.7c1.2,0,2.2-1.1,2.2-2.6M2555.2,133.6h-81.4M2471.3,132.1c0,1.5,1,2.6,2.2,2.6M2472.1,131.5V12.6M2583.1,134.7c.7,0,1.2-.6,1.2-1.5M2582.6,133.6h-17.2M2564.6,133.2c0,.9.6,1.5,1.3,1.5M2564.6,132.5V11.5M2565.9,9.2c-.7,0-1.3.8-1.3,1.7M2565.5,9.2h17.2M2584.3,10.9c0-.9-.5-1.7-1.2-1.7M2583.5,11.5v121.1M2454.1,1.6V.6M2454.1,132.5v-1.1M2454.1,120.5v-28.3M2450.7,82.3h-8.6M2439.6,82.3h-13.8M2454.1,138.1h-.8M2439.6,61.7h-13.8M2454.1,5.9h-.8M2454.1,11.5v2.2M2454.1,19v42.7M2421.6,61.7h4.2M2425.5,61.7c.5,0,.8-.5,1.1-.9.2-.5.2-1.2,0-1.7M2438.3,59.7c2.1-3.9,1.6-8.9-1.2-12.2-2.7-3.1-6.9-3.1-9.6,0-2.8,3.1-3.3,8.3-1.2,12.2M2438,59.1c-.2.5-.2,1.2,0,1.7.2.5.6.9,1.1.9M2439.6,61.7h10.3M2451.6,63.2c0-.9-.6-1.5-1.3-1.5M2450.7,62.8v27.3M2448.2,90.5c0,.9.5,1.7,1.2,1.7s1.3-.8,1.3-1.7M2448.2,90v-1.1M2448.2,88.3c0-.9-.6-1.5-1.3-1.5s-1.3.6-1.3,1.5M2445.5,89v39.3l2.7,5.4M2447.5,133.9c.2.6.8.9,1.5.8.5-.2,1-.8,1-1.5M2449.9,133.6v-7.5M2454.1,126.5c0-1.4-1-2.6-2.2-2.6s-2.1,1.2-2.1,2.6M2454.1,126.1v5.4l6.9,5.5M2460.8,136.7c.6.5,1.5.2,1.8-.6.4-.8.1-1.7-.5-2.2M2462.7,133.6l-6-4.3v-3.2M2456.6,126.5c0-3.2-2.1-6-4.7-6M2451.6,119.4h-2.5M2448.2,119c0,.9.5,1.5,1.2,1.5M2448.2,118.4v-21.9M2449.5,95.4c-.4,0-.7.2-1,.5-.2.3-.4.8-.4,1.2M2449.2,96.5c1.3.2,2.5-.5,3.5-1.5,1-1.2,1.4-2.8,1.4-4.5M2454.1,90v-27.3M2454.1,63.2c0-2.6-1.7-4.9-3.9-4.9M2449.9,58.3h-6M2442.1,56.5c0,.5.1.9.4,1.4.2.3.5.5,1,.5M2442,56.3c.6-4.9-1.3-10-4.7-12.6-3.4-2.5-7.7-2.2-10.9.8M2424.1,43.7c0,.6.2,1.1.7,1.4.5.3,1,.3,1.3-.2M2424.1,43.1V11.5M2425.5,10.4c-.7,0-1.3.6-1.3,1.5M2425.8,10.4h21.4M2449.9,13c-.1-1.5-1-2.6-2.2-2.6M2449.9,12.1c0,3.2,2.2,5.9,4.7,5.9M2454.1,19h7.7M2462.2,19c.6,0,1.1-.5,1.3-1.1.1-.6-.1-1.4-.5-1.8M2462.7,16.9l-5.1-5.4M2457.4,11.5c-.1-.2-.5,0-.6.2M2456.6,11.5l-.8,2.2M2453.3,11.9c0,.8.4,1.4.8,1.5.5.3,1.1,0,1.5-.5M2453.3,12.6v-4.5M2453.3,7.8v-.5c-.1-.2-.2-.3-.4-.3M2453.3,5.9h-31.7v55.7M2421.6,82.3v55.7h31.7v-12M2454.1,126.5c0-.8-.5-1.5-1.1-1.5-.7-.2-1.3.5-1.5,1.2M2451.6,126.1l-.8,7.5M2449.4,134.7c.6,0,1.1-.5,1.3-1.2M2449.9,134.7h-24.1M2424.1,133.2c0,.9.6,1.5,1.3,1.5M2424.1,132.5v-30.5M2426.2,100.2c-.4-.5-.8-.5-1.3-.2-.5.3-.7.8-.7,1.4M2426.4,100.7c3,2.9,7.1,3.2,10.5.9,3.4-2.3,5.4-6.9,5.2-11.7M2443.5,87.9c-.4,0-.7.2-1,.5-.2.3-.4.8-.4,1.2M2443.8,87.9h4.4M2448.8,88.5c-.2-.5-.7-.6-1.1-.6M2449,88.6c.1.2.2.3.4.3M2449.4,89c.7,0,1.3-.8,1.3-1.7M2450.7,87.9v-3.4h-7.7M2443,84c0,.3.2.5.5.5M2442.1,84c0-.3-.2-.6-.5-.6M2442.1,82.3h-2.5M2439.1,82.3c-.5,0-.8.3-1.1.9-.2.5-.2,1.2,0,1.7M2426.3,85.4c-2.1,3.9-1.6,9.1,1.2,12.2,2.7,3.1,6.9,3.1,9.6,0,2.8-3.1,3.3-8.3,1.2-12.2M2426.5,84.9c.2-.5.2-1.2,0-1.7-.2-.6-.6-.9-1.1-.9M2425.8,82.3h-4.2"/>
  </g>
</svg>